# xmcd CD database file
#
# Track frame offsets:
#	150
#	22393
#	40562
#	57239
#	96709
#	125245
#	152175
#	169875
#	185956
#
# Disc length: 2705 seconds
#
# Revision: 1
# Processed by: cddbd v1.5.2PL0 Copyright (c) Steve Scherf et al.
# Submitted via: CDex 1.51
#
DISCID=8a0a8f09
DTITLE=Various Artist - Proburn-333
DYEAR=1900
DGENRE=Blues
TTITLE0=Jive Bunny and The Mastermixer - Swing The Mood
TTITLE1=Andrea Bocelli - Time To Say Goodbye
TTITLE2=Take That - Beatles Medley
TTITLE3=Take That - Motown Medley
TTITLE4=Take That - Rock and Roll Medley
TTITLE5=AC-DC - For Those About To Rock We Salute You
TTITLE6=Various Artist - Perfect Day
TTITLE7=George Straitt - All My Ex's Live In Texas
TTITLE8=AC-DC - You Shook Me All Night Long
EXTD=
EXTT0=
EXTT1=
EXTT2=
EXTT3=
EXTT4=
EXTT5=
EXTT6=
EXTT7=
EXTT8=
PLAYORDER=
